<svg data-v-0dd9719b="" version="1.0" xmlns="http://www.w3.org/2000/svg" xmlns:xlink="http://www.w3.org/1999/xlink" width="100%" height="100%" viewBox="0 0 340.000000 250.000000" preserveAspectRatio="xMidYMid meet" color-interpolation-filters="sRGB" style="margin: auto;"> <rect data-v-0dd9719b="" x="0" y="0" width="100%" height="100%" fill="#fff" fill-opacity="1" class="background"></rect> <rect data-v-0dd9719b="" x="0" y="0" width="100%" height="100%" fill="url(#watermark)" fill-opacity="1" class="watermarklayer"></rect> <g data-v-0dd9719b="" fill="#333" class="icon-text-wrapper icon-svg-group iconsvg" transform="translate(47.719993591308594,95.55763816833496)"><g class="iconsvg-imagesvg" transform="translate(0,0)"><g><rect fill="#333" fill-opacity="0" stroke-width="2" x="0" y="0" width="60" height="58.88472333994151" class="image-rect"></rect> <svg x="0" y="0" width="60" height="58.88472333994151" filtersec="colorsb2831652475" class="image-svg-svg primary" style="overflow: visible;"><svg xmlns="http://www.w3.org/2000/svg" viewBox="0.19000180065631866 -1.0658137648269714e-13 61.32999801635742 60.18983840942383"><path d="M24.44 11.51a24.34 24.34 0 1 0 24.43 24.35 24.39 24.39 0 0 0-24.43-24.35z" fill="#ff00a4" opacity=".9"></path><path d="M46.52 0h-23a15 15 0 0 0-15 15v22.26a15 15 0 0 0 15 15h23a15 15 0 0 0 15-15V15a15 15 0 0 0-15-15z" fill="#5e01ce" opacity=".8"></path></svg></svg> <!----></g></g> <g transform="translate(67,18.54236125946045)"><g data-gra="path-name" fill-rule="" class="tp-name iconsvg-namesvg"><g transform="scale(1)"><g><path d="M4.16 0Q3.29 0 2.79-0.48 2.29-0.96 2.29-1.84L2.29-1.84 2.29-19.42Q2.29-20.29 2.79-20.77 3.29-21.26 4.16-21.26L4.16-21.26 15.05-21.26Q15.92-21.26 16.4-20.86 16.88-20.47 16.88-19.75L16.88-19.75Q16.88-18.99 16.4-18.59 15.92-18.18 15.05-18.18L15.05-18.18 6.09-18.18 6.09-12.33 14.44-12.33Q15.32-12.33 15.8-11.94 16.28-11.55 16.28-10.79L16.28-10.79Q16.28-10.07 15.8-9.68 15.32-9.29 14.44-9.29L14.44-9.29 6.09-9.29 6.09-3.08 15.05-3.08Q15.92-3.08 16.4-2.67 16.88-2.26 16.88-1.51L16.88-1.51Q16.88-0.78 16.4-0.39 15.92 0 15.05 0L15.05 0 4.16 0ZM35.52-20.41Q36-21.44 37.12-21.44L37.12-21.44Q37.87-21.44 38.47-20.95 39.08-20.47 39.08-19.75L39.08-19.75Q39.08-19.42 38.89-18.99L38.89-18.99 30.54-1.03Q30.27-0.45 29.71-0.14 29.16 0.18 28.52 0.18L28.52 0.18Q27.89 0.18 27.33-0.14 26.77-0.45 26.5-1.03L26.5-1.03 18.18-18.99Q18-19.42 18-19.72L18-19.72Q18-20.47 18.62-20.95 19.24-21.44 20.02-21.44L20.02-21.44Q20.53-21.44 20.97-21.18 21.41-20.92 21.65-20.41L21.65-20.41 28.58-5.01 35.52-20.41ZM43.45 0Q42.57 0 42.08-0.48 41.58-0.96 41.58-1.84L41.58-1.84 41.58-19.42Q41.58-20.29 42.08-20.77 42.57-21.26 43.45-21.26L43.45-21.26 54.33-21.26Q55.21-21.26 55.69-20.86 56.17-20.47 56.17-19.75L56.17-19.75Q56.17-18.99 55.69-18.59 55.21-18.18 54.33-18.18L54.33-18.18 45.38-18.18 45.38-12.33 53.73-12.33Q54.6-12.33 55.09-11.94 55.57-11.55 55.57-10.79L55.57-10.79Q55.57-10.07 55.09-9.68 54.6-9.29 53.73-9.29L53.73-9.29 45.38-9.29 45.38-3.08 54.33-3.08Q55.21-3.08 55.69-2.67 56.17-2.26 56.17-1.51L56.17-1.51Q56.17-0.78 55.69-0.39 55.21 0 54.33 0L54.33 0 43.45 0ZM61.18 0Q60.3 0 59.82-0.48 59.34-0.96 59.34-1.81L59.34-1.81 59.34-19.48Q59.34-20.35 59.86-20.88 60.39-21.41 61.27-21.41L61.27-21.41Q62.17-21.41 62.7-20.88 63.23-20.35 63.23-19.48L63.23-19.48 63.23-3.2 71.7-3.2Q73.51-3.2 73.51-1.6L73.51-1.6Q73.51 0 71.7 0L71.7 0 61.18 0ZM84.39 0.27Q81.29 0.27 79.01-1.06 76.73-2.38 75.5-4.85 74.26-7.33 74.26-10.64L74.26-10.64Q74.26-13.96 75.48-16.42 76.7-18.87 78.99-20.2 81.29-21.53 84.39-21.53L84.39-21.53Q87.5-21.53 89.77-20.2 92.05-18.87 93.27-16.42 94.49-13.96 94.49-10.64L94.49-10.64Q94.49-7.33 93.26-4.85 92.02-2.38 89.74-1.06 87.47 0.27 84.39 0.27L84.39 0.27ZM84.39-2.83Q87.32-2.83 88.96-4.85 90.6-6.87 90.6-10.64L90.6-10.64Q90.6-14.41 88.96-16.42 87.32-18.42 84.39-18.42L84.39-18.42Q81.44-18.42 79.79-16.42 78.15-14.41 78.15-10.64L78.15-10.64Q78.15-6.87 79.79-4.85 81.44-2.83 84.39-2.83L84.39-2.83ZM111.32-3.11Q113.13-3.11 113.13-1.57L113.13-1.57Q113.13 0 111.32 0L111.32 0 98.47 0Q97.69 0 97.22-0.47 96.75-0.93 96.75-1.66L96.75-1.66Q96.75-2.38 97.24-3.05L97.24-3.05 108.03-18.15 98.59-18.15Q96.78-18.15 96.78-19.69L96.78-19.69Q96.78-21.26 98.59-21.26L98.59-21.26 111.05-21.26Q111.83-21.26 112.3-20.79 112.76-20.32 112.76-19.63L112.76-19.63Q112.76-18.93 112.25-18.24L112.25-18.24 101.46-3.11 111.32-3.11ZM125.16 0.27Q122.08 0.27 119.77-1.06 117.47-2.38 116.23-4.85 114.99-7.33 114.99-10.64L114.99-10.64Q114.99-13.96 116.23-16.42 117.47-18.87 119.77-20.2 122.08-21.53 125.16-21.53L125.16-21.53Q127.15-21.53 128.89-20.94 130.64-20.35 132-19.24L132-19.24Q132.39-18.93 132.54-18.6 132.69-18.27 132.69-17.79L132.69-17.79Q132.69-17.13 132.33-16.67 131.97-16.22 131.46-16.22L131.46-16.22Q130.85-16.22 130.22-16.64L130.22-16.64Q128.92-17.61 127.81-17.98 126.69-18.36 125.34-18.36L125.34-18.36Q122.2-18.36 120.59-16.4 118.97-14.44 118.97-10.64L118.97-10.64Q118.97-6.81 120.59-4.85 122.2-2.89 125.34-2.89L125.34-2.89Q126.63-2.89 127.73-3.29 128.83-3.68 130.22-4.61L130.22-4.61Q130.52-4.79 130.82-4.91 131.13-5.04 131.46-5.04L131.46-5.04Q131.97-5.04 132.33-4.58 132.69-4.13 132.69-3.47L132.69-3.47Q132.69-3.02 132.54-2.67 132.39-2.32 132-2.02L132-2.02Q130.64-0.9 128.89-0.32 127.15 0.27 125.16 0.27L125.16 0.27ZM138.03 0.18Q137.16 0.18 136.63-0.36 136.1-0.9 136.1-1.78L136.1-1.78 136.1-19.48Q136.1-20.35 136.63-20.88 137.16-21.41 138.03-21.41L138.03-21.41Q138.93-21.41 139.46-20.88 139.99-20.35 139.99-19.48L139.99-19.48 139.99-1.78Q139.99-0.9 139.46-0.36 138.93 0.18 138.03 0.18L138.03 0.18ZM151.54 0.15Q150.63 0.15 150.11-0.38 149.58-0.9 149.58-1.78L149.58-1.78 149.58-18.06 144.09-18.06Q142.28-18.06 142.28-19.66L142.28-19.66Q142.28-21.26 144.09-21.26L144.09-21.26 158.95-21.26Q160.76-21.26 160.76-19.66L160.76-19.66Q160.76-18.06 158.95-18.06L158.95-18.06 153.47-18.06 153.47-1.78Q153.47-0.9 152.94-0.38 152.41 0.15 151.54 0.15L151.54 0.15ZM176.77-20.74Q177.32-21.41 178.07-21.41L178.07-21.41Q178.76-21.41 179.31-20.88 179.85-20.35 179.85-19.63L179.85-19.63Q179.85-19.03 179.4-18.48L179.4-18.48 172.55-10.13 172.55-1.78Q172.55-0.84 172.01-0.33 171.47 0.18 170.62 0.18L170.62 0.18Q169.75 0.18 169.21-0.33 168.66-0.84 168.66-1.78L168.66-1.78 168.66-10.13 161.82-18.48Q161.37-19.03 161.37-19.63L161.37-19.63Q161.37-20.35 161.91-20.88 162.45-21.41 163.15-21.41L163.15-21.41Q163.9-21.41 164.44-20.74L164.44-20.74 170.62-13.09 176.77-20.74Z" transform="translate(-2.2899999618530273, 21.530000686645508)"></path></g> <!----> <!----> <!----> <!----> <!----> <!----> <!----></g></g> <!----></g></g><defs v-gra="od"></defs></svg>